<?xml version="1.0" encoding="UTF-8"?>
<!DOCTYPE svg PUBLIC "-//W3C//DTD SVG 1.1//EN" "http://www.w3.org/Graphics/SVG/1.1/DTD/svg11.dtd">
<!-- Creator: CorelDRAW 2020 (64 Bit) -->
<svg xmlns="http://www.w3.org/2000/svg" xml:space="preserve" width="72.3194mm" height="24.3416mm" version="1.1" style="shape-rendering:geometricPrecision; text-rendering:geometricPrecision; image-rendering:optimizeQuality; fill-rule:evenodd; clip-rule:evenodd"
viewBox="0 0 7231.94 2434.16"
 xmlns:xlink="http://www.w3.org/1999/xlink"
 xmlns:xodm="http://www.corel.com/coreldraw/odm/2003">
 <defs>
  <style type="text/css">
   <![CDATA[
    .fil1 {fill:#343A40}
    .fil0 {fill:#343A40;fill-rule:nonzero}
   ]]>
  </style>
 </defs>
 <g id="Camada_x0020_1">
  <metadata id="CorelCorpID_0Corel-Layer"/>
  <path class="fil0" d="M188.47 1442.32l0 -908.7c0,-159.26 47.62,-286.68 143.18,-382.59 95.21,-95.55 222.28,-143.51 380.84,-143.51 158.21,0 278.98,46.55 362.64,139.67 83.66,92.75 125.65,226.46 125.65,400.79l0 894.34 -416.18 0 0 -894.34c0,-85.42 -30.46,-128.12 -91.36,-128.12 -59.16,0 -88.57,42.7 -88.57,128.12l0 894.34 -416.2 0zm1804.81 -383.64l0 396.95c-31.5,5.6 -60.21,8.4 -86.12,8.4 -153.65,0 -282.12,-50.76 -384.69,-151.92 -102.55,-101.16 -153.66,-227.87 -153.66,-380.49 0,-148.41 51.81,-274.08 155.41,-377.35 103.62,-103.25 229.64,-155.05 378.05,-155.05 165.22,0 295.78,48.29 390.99,145.26 95.57,96.6 143.17,228.93 143.17,396.24l0 501.6 -383.65 0 0 -473.95c0,-53.9 -13.3,-96.95 -39.55,-129.16 -26.25,-32.2 -61.6,-48.32 -106.07,-48.32 -40.25,0 -75.24,14.71 -104.66,44.12 -29.39,29.4 -44.1,64.41 -44.1,104.66 0,42.71 13.3,77.36 39.91,105.01 26.61,27.31 60.55,40.96 101.51,40.96 33.61,0 64.75,-9.11 93.46,-26.96zm1008.1 -1016.15l0 391.69 172.23 0 0 404.99 -172.23 0c0,81.21 12.97,137.56 38.52,168.37 25.54,30.45 72.8,45.84 141.07,45.84l0 403.26c-19.97,0.69 -34.66,1.05 -44.11,1.05 -86.82,0 -168.72,-20.31 -245.74,-60.55 -77,-40.27 -138.6,-94.87 -185.16,-164.18 -58.8,-88.21 -88.21,-205.12 -88.21,-350.74l0 -839.73 383.63 0zm360.91 391.69l383.65 0 0 577.22c0,58.44 24.13,87.49 72.81,87.49 47.94,0 71.75,-29.05 71.75,-87.49l0 -577.22 383.65 0 0 570.2c0,132.67 -44.13,244.69 -132.33,336.04 -88.23,91.36 -196.39,136.88 -324.13,136.88 -145.63,0 -262.89,-52.86 -351.8,-158.93 -68.96,-82.96 -103.6,-197.76 -103.6,-344.79l0 -539.4zm1696.3 -24.5l0 410.24c-26.64,-15.06 -51.12,-22.41 -72.82,-22.41 -69.67,0 -104.67,53.21 -104.67,159.62l0 485.15 -383.64 0 0 -559.01c0,-147.37 40.25,-265.33 121.11,-353.19 80.5,-87.85 188.31,-131.61 323.11,-131.61 30.09,0 68.93,3.85 116.91,11.21zm680.79 648.96l0 396.95c-31.51,5.6 -60.19,8.4 -86.08,8.4 -153.67,0 -282.15,-50.76 -384.7,-151.92 -102.56,-101.16 -153.67,-227.87 -153.67,-380.49 0,-148.41 51.78,-274.08 155.43,-377.35 103.61,-103.25 229.62,-155.05 378.04,-155.05 165.2,0 295.76,48.29 390.98,145.26 95.57,96.6 143.16,228.93 143.16,396.24l0 501.6 -383.65 0 0 -473.95c0,-53.9 -13.3,-96.95 -39.55,-129.16 -26.24,-32.2 -61.59,-48.32 -106.04,-48.32 -40.25,0 -75.28,14.71 -104.67,44.12 -29.42,29.4 -44.1,64.41 -44.1,104.66 0,42.71 13.3,77.36 39.9,105.01 26.6,27.31 60.54,40.96 101.5,40.96 33.62,0 64.77,-9.11 93.45,-26.96zm1050.15 -1016.15l0 1399.79 -383.65 0 0 -1399.79 383.65 0zm207.08 1472.68l0 -161.83 68.82 0c17.29,0 29.81,1.48 37.68,4.37 7.83,2.89 14.11,8.06 18.84,15.49 4.69,7.46 7.02,15.93 7.02,25.51 0,12.14 -3.56,22.2 -10.69,30.11 -7.13,7.87 -17.82,12.88 -32.03,14.91 7.09,4.15 12.91,8.67 17.53,13.6 4.59,4.95 10.76,13.68 18.56,26.27l19.79 31.57 -39.09 0 -23.6 -35.23c-8.4,-12.58 -14.11,-20.5 -17.22,-23.77 -3.1,-3.28 -6.38,-5.51 -9.84,-6.75 -3.46,-1.2 -8.92,-1.81 -16.47,-1.81l-6.6 0 0 67.56 -32.7 0zm32.7 -93.39l24.16 0c15.67,0 25.47,-0.66 29.39,-1.97 3.88,-1.31 6.95,-3.61 9.17,-6.85 2.19,-3.26 3.32,-7.29 3.32,-12.14 0,-5.47 -1.48,-9.84 -4.38,-13.19 -2.92,-3.36 -7.02,-5.47 -12.34,-6.37 -2.61,-0.34 -10.59,-0.52 -23.85,-0.52l-25.47 0 0 41.04z"/>
  <path class="fil1" d="M3582.04 1646.67c1963.03,0 3554.97,78.03 3554.97,174.27 0,96.23 -1591.94,174.25 -3554.97,174.25 -1963.04,0 -3554.99,-78.02 -3554.99,-174.25 0,-96.24 1591.95,-174.27 3554.99,-174.27zm-2760.36 354.08c143.53,6.92 203.76,-46.07 196.58,102.88 -7.19,148.95 -406.92,309.71 -550.44,302.8 -143.54,-6.94 122.42,-193.83 129.6,-342.78 7.2,-148.95 80.71,-69.84 224.26,-62.9z"/>
 </g>
</svg>
